<svg width="349" height="401" viewBox="0 0 349 401" fill="none" xmlns="http://www.w3.org/2000/svg">
<g clip-path="url(#clip0_120_155)">
<path d="M175 119C130.348 119 94 155.348 94 200C94 244.652 130.348 281 175 281C219.652 281 256 244.652 256 200C256 155.348 219.687 119 175 119ZM175 262.668C140.447 262.668 112.332 234.553 112.332 200C112.332 182.723 119.334 167.1 130.665 155.735C130.172 158.444 129.891 161.224 129.891 164.074C129.891 188.951 150.123 209.184 175 209.184V190.816C160.257 190.816 148.258 178.818 148.258 164.074C148.258 149.331 160.257 137.332 175 137.332C209.553 137.332 237.668 165.447 237.668 200C237.668 234.553 209.553 262.668 175 262.668Z" fill="#5DDF81"/>
</g>
<path d="M347 72.4664V328.208C347 337.388 340.519 344.84 332.535 344.84H314.644C306.66 344.84 300.179 352.292 300.179 361.472V382.043C300.179 391.223 293.697 398.675 285.713 398.675H63.2868C55.3025 398.675 48.8214 391.223 48.8214 382.043V361.472C48.8214 352.292 42.3404 344.84 34.3561 344.84H16.4654C8.48107 344.84 2 337.388 2 328.208V72.4664C2 63.2862 8.48107 55.8344 16.4654 55.8344H34.3561C42.3404 55.8344 48.8214 48.3826 48.8214 39.2024V18.632C48.8214 9.45182 55.3025 2 63.2868 2H285.713C293.697 2 300.179 9.45182 300.179 18.632V39.2024C300.179 48.3826 306.66 55.8344 314.644 55.8344H332.535C340.519 55.8344 347 63.2862 347 72.4664Z" stroke="#2B4B4B" stroke-width="3" stroke-dasharray="11 11"/>
<defs>
<clipPath id="clip0_120_155">
<rect width="162" height="162" fill="white" transform="translate(94 119)"/>
</clipPath>
</defs>
</svg>
