<svg width="162" height="162" viewBox="0 0 162 162" fill="none" xmlns="http://www.w3.org/2000/svg">
<g clip-path="url(#clip0_147_24)">
<path d="M81 0C36.348 0 0 36.348 0 81C0 125.652 36.348 162 81 162C125.652 162 162 125.652 162 81C162 36.348 125.687 0 81 0ZM81 143.668C46.4466 143.668 18.3323 115.553 18.3323 81C18.3323 63.7233 25.3345 48.1003 36.6646 36.735C36.172 39.4444 35.8905 42.2242 35.8905 45.0743C35.8905 69.9513 56.1229 90.1837 81 90.1837V71.8162C66.2567 71.8162 54.258 59.8176 54.258 45.0743C54.258 30.331 66.2567 18.3323 81 18.3323C115.553 18.3323 143.668 46.4466 143.668 81C143.668 115.553 115.553 143.668 81 143.668Z" fill="#5DDF81"/>
</g>
<defs>
<clipPath id="clip0_147_24">
<rect width="162" height="162" fill="white"/>
</clipPath>
</defs>
</svg>
