<svg width="349" height="401" viewBox="0 0 349 401" fill="none" xmlns="http://www.w3.org/2000/svg">
<path d="M347 72.4664V328.208C347 337.388 340.519 344.84 332.535 344.84H314.644C306.66 344.84 300.179 352.292 300.179 361.472V382.043C300.179 391.223 293.697 398.675 285.713 398.675H63.2868C55.3025 398.675 48.8214 391.223 48.8214 382.043V361.472C48.8214 352.292 42.3404 344.84 34.3561 344.84H16.4654C8.48107 344.84 2 337.388 2 328.208V72.4664C2 63.2862 8.48107 55.8344 16.4654 55.8344H34.3561C42.3404 55.8344 48.8214 48.3826 48.8214 39.2024V18.632C48.8214 9.45182 55.3025 2 63.2868 2H285.713C293.697 2 300.179 9.45182 300.179 18.632V39.2024C300.179 48.3826 306.66 55.8344 314.644 55.8344H332.535C340.519 55.8344 347 63.2862 347 72.4664Z" stroke="#2B4B4B" stroke-width="3" stroke-dasharray="11 11"/>
</svg>
