<svg width="37" height="33" viewBox="0 0 37 33" fill="none" xmlns="http://www.w3.org/2000/svg">
<g clip-path="url(#clip0_118_122)">
<path d="M9.99886 27.1845H9.64953L7.90576 25.4407V25.0914L10.5715 22.4256H12.4183L12.6646 22.6719V24.5187L9.99886 27.1845ZM7.90576 7.46188V7.11254L9.64953 5.36877H9.99886L12.6646 8.03451V9.88133L12.4183 10.1276H10.5715L7.90576 7.46188Z" fill="white"/>
<path d="M23.256 21.5638H20.7191L20.5073 21.3519V15.4132C20.5073 14.3567 20.092 13.5378 18.8178 13.5092C18.1621 13.492 17.412 13.5092 16.6103 13.5407L16.4899 13.6638V21.349L16.278 21.5609H13.7412L13.5293 21.349V11.2043L13.7412 10.9923H19.4506C21.6697 10.9923 23.4678 12.7904 23.4678 15.0096V21.3519L23.256 21.5638Z" fill="white"/>
<path d="M10.3596 17.7613H0.211883L0 17.5494V15.0067L0.211883 14.7948H10.3596L10.5714 15.0067V17.5494L10.3596 17.7613ZM36.7881 17.7613H26.6404L26.4286 17.5494V15.0067L26.6404 14.7948H36.7881L37 15.0067V17.5494L36.7881 17.7613ZM17.0368 7.82261V0.211883L17.2486 0H19.7914L20.0033 0.211883V7.82261L19.7914 8.03449H17.2486L17.0368 7.82261ZM17.0368 32.3442V24.7335L17.2486 24.5216H19.7914L20.0033 24.7335V32.3442L19.7914 32.556H17.2486L17.0368 32.3442Z" fill="white"/>
</g>
<defs>
<clipPath id="clip0_118_122">
<rect width="37" height="32.6641" fill="white"/>
</clipPath>
</defs>
</svg>
